#!OML:ASF E:\motion texture\Top Level 1\Subject 1\Session 1\male.ASF
:FULLY-SPECIFIED
:DEGREES
241
root -2.25928 18.0007 4.79114 824.04 -80.1753 -817.901
lowerback -2.92427 1.55524 7.68107
upperback -2.50776 1.79592 3.69026
thorax -0.831964 0.76235 -0.448855
lowerneck -9.46888 -5.36938 -7.88779
upperneck 20.7063 -9.17706 11.8084
head 8.92812 -4.02072 4.31546
rclavicle 1.78254e-014 -2.56432e-014
rhumerus -21.4122 -13.9315 -73.0869
rradius 113.253
rwrist -20.5444
rhand -16.8183 -31.1583
rfingers 7.12502
rthumb 9.41067 -60.9282
lclavicle 1.78254e-014 -2.56432e-014
lhumerus -39.0143 -1.47881 87.1325
lradius 116.718
lwrist 10.1462
lhand 7.85326 18.8846
lfingers 7.12502
lthumb 33.0875 45.8663
rfemur 0.274809 5.67922 35.5961
rtibia 12.1722
rfoot -11.7868 -9.81944
rtoes 11.2261
lfemur -33.1711 5.46718 -5.93383
ltibia 35.9737
lfoot -8.12815 6.97699
ltoes -17.2812
242
root -2.40027 17.9844 4.79619 825.666 -80.034 -819.276
lowerback -3.0699 1.68893 7.87272
upperback -2.57249 1.95655 3.60564
thorax -0.798892 0.838235 -0.63388
lowerneck -9.46002 -5.35182 -7.96012
upperneck 20.6963 -9.09499 11.6584
head 8.90952 -3.99951 4.28584
rclavicle 2.01347e-015 7.55382e-015
rhumerus -20.7755 -14.8077 -72.6296
rradius 112.607
rwrist -21.0448
rhand -17.0696 -30.3346
rfingers 7.12502
rthumb 9.1682 -60.1153
lclavicle 2.01347e-015 7.55382e-015
lhumerus -39.0307 -0.756753 87.3112
lradius 117.387
lwrist 10.8103
lhand 8.06734 18.4966
lfingers 7.12502
lthumb 33.291 45.435
rfemur 0.550832 5.73298 35.6961
rtibia 12.1481
rfoot -12.0902 -9.77503
rtoes 10.6907
lfemur -33.0847 4.95092 -5.64541
ltibia 32.8532
lfoot -7.47281 7.49932
ltoes -17.1988
243
root -2.54267 17.9664 4.80192 827.267 -79.8816 -820.621
lowerback -3.23419 1.82131 8.06684
upperback -2.63408 2.11221 3.52415
thorax -0.75112 0.911976 -0.815851
lowerneck -9.4548 -5.32813 -8.01978
upperneck 20.7087 -9.0014 11.4744
head 8.89583 -3.97461 4.24388
rclavicle 6.73849e-015 3.04141e-014
rhumerus -20.1139 -15.7286 -72.1899
rradius 111.758
rwrist -21.6312
rhand -17.2038 -29.5975
rfingers 7.12502
rthumb 9.03868 -59.3839
lclavicle 6.73849e-015 3.04141e-014
lhumerus -39.0303 -0.0625417 87.5209
lradius 117.967
lwrist 11.5696
lhand 8.16724 18.2457
lfingers 7.12502
lthumb 33.386 45.1636
rfemur 0.821273 5.79945 35.7948
rtibia 12.1412
rfoot -12.4062 -9.73086
rtoes 10.0867
lfemur -32.921 4.302 -5.28371
ltibia 29.6207
lfoot -6.80142 8.04426
ltoes -17.0637
244
root -2.68538 17.9468 4.80889 828.923 -79.7164 -822.016
lowerback -3.39531 1.9584 8.27101
upperback -2.69473 2.27336 3.44315
thorax -0.702103 0.988277 -1.0019
lowerneck -9.50521 -5.29889 -8.10909
upperneck 20.7784 -8.8988 11.2925
head 8.91282 -3.9449 4.20846
rclavicle -1.50735e-014 3.06128e-014
rhumerus -19.4192 -16.6856 -71.7687
rradius 110.687
rwrist -22.2782
rhand -17.228 -29.0035
rfingers 7.12502
rthumb 9.01533 -58.7909
lclavicle -1.50735e-014 3.06128e-014
lhumerus -39.0074 0.588721 87.7626
lradius 118.466
lwrist 12.4074
lhand 8.11935 18.1394
lfingers 7.12502
lthumb 33.3405 45.0671
rfemur 1.07352 5.8837 35.8849
rtibia 12.1617
rfoot -12.7368 -9.6727
rtoes 9.43859
lfemur -32.7032 3.51619 -4.84316
ltibia 26.3298
lfoot -6.18942 8.62674
ltoes -16.9274
245
root -2.82827 17.9254 4.81701 830.579 -79.547 -823.404
lowerback -3.55423 2.09617 8.47683
upperback -2.75283 2.43484 3.36053
thorax -0.650115 1.06484 -1.18969
lowerneck -9.6209 -5.26627 -8.23193
upperneck 20.9108 -8.78963 11.1162
head 8.96481 -3.91139 4.18101
rclavicle -5.00145e-015 -1.96797e-014
rhumerus -18.6884 -17.6759 -71.3707
rradius 109.385
rwrist -23.0029
rhand -17.1397 -28.5721
rfingers 7.12502
rthumb 9.10058 -58.3558
lclavicle -5.00145e-015 -1.96797e-014
lhumerus -38.9613 1.1842 88.0318
lradius 118.888
lwrist 13.2894
lhand 7.92224 18.1569
lfingers 7.12502
lthumb 33.1531 45.1247
rfemur 1.30557 5.97313 35.9579
rtibia 12.2124
rfoot -13.083 -9.59418
rtoes 8.76132
lfemur -32.4566 2.58804 -4.33
ltibia 23.0439
lfoot -5.70625 9.24035
ltoes -16.8085
246
root -2.97255 17.9017 4.82534 832.232 -79.372 -824.798
lowerback -3.71334 2.23305 8.67438
upperback -2.80037 2.59412 3.2782
thorax -0.586131 1.1412 -1.37168
lowerneck -9.76189 -5.22839 -8.33408
upperneck 21.0631 -8.66733 10.9028
head 9.02454 -3.87274 4.1385
rclavicle -2.79483e-015 -3.85642e-014
rhumerus -17.9118 -18.6941 -71.0055
rradius 107.856
rwrist -23.8227
rhand -16.9194 -28.3436
rfingers 7.12502
rthumb 9.3131 -58.1179
lclavicle -2.79483e-015 -3.85642e-014
lhumerus -38.8904 1.71545 88.3231
lradius 119.237
lwrist 14.1709
lhand 7.56821 18.2785
lfingers 7.12502
lthumb 32.8164 45.3172
rfemur 1.53378 6.07521 36.0208
rtibia 12.2988
rfoot -13.4482 -9.50329
rtoes 8.05589
lfemur -32.1869 1.54755 -3.74354
ltibia 19.8348
lfoot -5.41702 9.88395
ltoes -16.5804
